<svg xmlns="http://www.w3.org/2000/svg" width="960" height="560" viewBox="0 0 960 560">
<rect width="100%" height="100%" fill="white"/>
<text x="480.0" y="28" text-anchor="middle" font-family="sans-serif" font-size="20">Trayectorias globales durante la autonomía</text>
<line x1="100.0" y1="54" x2="100.0" y2="472" stroke="#e5e7eb"/>
<line x1="100" y1="54.0" x2="926" y2="54.0" stroke="#e5e7eb"/>
<text x="100.0" y="496" text-anchor="middle" font-family="sans-serif" font-size="13">-4.7</text>
<text x="90" y="59.0" text-anchor="end" font-family="sans-serif" font-size="13">0.6</text>
<line x1="265.2" y1="54" x2="265.2" y2="472" stroke="#e5e7eb"/>
<line x1="100" y1="137.6" x2="926" y2="137.6" stroke="#e5e7eb"/>
<text x="265.2" y="496" text-anchor="middle" font-family="sans-serif" font-size="13">-2.5</text>
<text x="90" y="142.6" text-anchor="end" font-family="sans-serif" font-size="13">-1.7</text>
<line x1="430.4" y1="54" x2="430.4" y2="472" stroke="#e5e7eb"/>
<line x1="100" y1="221.2" x2="926" y2="221.2" stroke="#e5e7eb"/>
<text x="430.4" y="496" text-anchor="middle" font-family="sans-serif" font-size="13">-0.2</text>
<text x="90" y="226.2" text-anchor="end" font-family="sans-serif" font-size="13">-3.9</text>
<line x1="595.6" y1="54" x2="595.6" y2="472" stroke="#e5e7eb"/>
<line x1="100" y1="304.8" x2="926" y2="304.8" stroke="#e5e7eb"/>
<text x="595.6" y="496" text-anchor="middle" font-family="sans-serif" font-size="13">2.1</text>
<text x="90" y="309.8" text-anchor="end" font-family="sans-serif" font-size="13">-6.2</text>
<line x1="760.8" y1="54" x2="760.8" y2="472" stroke="#e5e7eb"/>
<line x1="100" y1="388.4" x2="926" y2="388.4" stroke="#e5e7eb"/>
<text x="760.8" y="496" text-anchor="middle" font-family="sans-serif" font-size="13">4.3</text>
<text x="90" y="393.4" text-anchor="end" font-family="sans-serif" font-size="13">-8.5</text>
<line x1="926.0" y1="54" x2="926.0" y2="472" stroke="#e5e7eb"/>
<line x1="100" y1="472.0" x2="926" y2="472.0" stroke="#e5e7eb"/>
<text x="926.0" y="496" text-anchor="middle" font-family="sans-serif" font-size="13">6.6</text>
<text x="90" y="477.0" text-anchor="end" font-family="sans-serif" font-size="13">-10.7</text>
<line x1="100" y1="472" x2="926" y2="472" stroke="#111827"/>
<line x1="100" y1="54" x2="100" y2="472" stroke="#111827"/>
<text x="480.0" y="538" text-anchor="middle" font-family="sans-serif" font-size="16">X global (m)</text>
<text x="24" y="280.0" transform="rotate(-90 24 280.0)" text-anchor="middle" font-family="sans-serif" font-size="16">Y global (m)</text>
<polyline points="298.5,445.0 298.5,445.0 298.6,445.0 298.6,445.0 298.6,445.0 298.6,445.0 298.6,445.0 298.6,444.9 298.7,445.0 298.7,445.0 298.8,445.0 298.8,445.0 298.9,445.0 298.9,445.0 299.0,444.9 299.1,444.9 299.1,445.0 299.2,445.0 299.2,445.0 299.2,445.0 299.3,445.0 299.3,445.0 299.3,445.0 299.4,444.9 299.4,445.0 299.4,445.0 299.5,445.0 299.5,445.0 299.5,445.0 299.5,445.0 299.5,445.0 299.5,445.0 299.5,445.0 299.5,445.0 299.5,445.0 299.5,445.0 299.5,445.0 299.5,445.0 299.5,445.0 299.5,445.0 299.5,445.0 299.5,445.0 299.5,445.0 299.5,445.0 299.5,445.0 299.5,445.0 299.5,445.0 299.5,445.0 299.5,445.0 299.5,445.0 299.5,445.0 299.5,445.0 299.5,445.0 299.5,445.0 299.5,445.0 299.5,445.0 299.5,445.0 299.5,445.0 299.5,445.0 299.5,445.0 299.5,445.0 299.5,445.0 299.5,445.0 299.5,445.0 299.5,445.0 299.5,445.0 299.5,445.0 299.5,445.0 299.5,445.0 299.5,445.0 299.5,445.0 299.5,445.0 299.5,445.0 299.5,445.0 299.5,445.0 299.5,445.0 299.5,445.0 299.5,445.0 299.5,445.0 299.5,445.0 299.5,445.0 299.5,445.0 299.5,445.0 299.5,445.0 299.5,445.0 299.5,445.0 299.5,445.0 299.5,445.0 299.5,445.0 299.5,445.0 299.5,445.0 299.5,445.0 299.5,445.0 299.5,445.0 299.5,445.0 299.5,445.0 299.5,445.0 299.5,445.0 299.5,445.0 299.5,445.0 299.5,445.0 299.5,445.0 299.5,445.0 299.5,445.0 299.5,445.0 299.5,445.0 299.5,445.0 299.5,445.0 299.5,445.0 299.5,445.0 299.5,445.0 299.5,445.0 299.5,445.0 299.5,445.0 299.5,445.0 299.5,445.0 299.5,445.0 299.5,445.0 299.5,445.0 299.5,445.0 299.5,445.0 299.5,445.0 299.5,445.0 299.5,445.0 299.5,445.0 299.5,445.0 299.5,445.0 299.5,445.0 299.5,445.0 299.5,445.0 299.5,445.0 299.5,445.0 299.5,445.0 299.5,445.0 299.5,445.0 299.5,445.0 299.5,445.0 299.5,445.0 299.5,445.0 299.5,445.0 299.5,445.0 299.5,445.0 299.5,445.0 299.5,445.0 299.5,445.0 299.5,445.0 299.5,445.0 299.5,445.0 299.5,445.0 299.5,445.0 299.5,445.0 299.5,445.0 299.5,445.0 299.5,445.0 299.5,445.0 299.5,445.0 299.5,445.0 299.5,445.0 299.5,445.0 299.5,445.0 299.5,445.0 299.5,445.0 299.5,445.0 299.5,445.0 299.5,445.0 299.5,445.0 299.5,445.0 299.5,445.0 299.5,445.0 299.5,445.0 299.5,445.0 299.5,445.0 299.5,445.0 299.5,445.0 299.5,445.0 299.5,445.0 299.5,445.0 299.5,445.0 299.5,445.0 299.5,445.0 299.5,445.0 299.5,445.0 299.5,445.0 299.5,445.0 299.5,445.0 299.5,445.0 299.5,445.0 299.5,445.0 299.5,445.0 299.5,445.0 299.5,445.0 299.5,445.0 299.5,445.0 299.5,445.0 299.5,445.0 299.5,445.0 299.5,445.0 299.5,445.0 299.5,445.0 299.5,445.0 299.5,445.0 299.5,445.0 299.5,445.0 299.5,445.0 299.5,445.0 299.5,445.0 299.5,445.0 299.5,445.0 299.5,445.0 299.5,445.0 299.5,445.0 299.5,445.0 299.5,445.0 299.5,445.0 299.5,445.0 299.5,445.0 299.5,445.0 299.5,445.0 299.5,445.0 299.5,445.0 299.5,445.0 299.5,445.0 299.5,445.0 299.5,445.0 299.5,445.0 299.5,445.0 299.5,445.0 299.5,445.0 299.5,445.0 299.5,445.0 299.5,445.0 299.5,445.0 299.5,445.0 299.5,445.0 299.5,445.0 299.5,445.0 299.5,445.0 299.5,445.0 299.5,445.0 299.5,445.0 299.5,445.0 299.5,445.0 299.5,445.0 299.5,445.0 299.5,445.0 299.5,445.0 299.5,445.0 299.5,445.0 299.5,445.0 299.5,445.0 299.5,445.0 299.5,445.0 299.5,445.0 299.5,445.0 299.5,445.0 299.5,445.0 299.5,445.0 299.5,445.0 299.5,445.0 299.5,445.0 299.5,445.0 299.5,445.0 299.5,445.0 299.5,445.0 299.5,445.0 299.5,445.0 299.5,445.0 299.5,445.0 299.5,445.0 299.5,445.0 299.5,445.0 299.5,445.0 299.5,445.0 299.5,445.0 299.5,445.0 299.5,445.0 299.5,445.0 299.5,445.0 299.5,445.0 299.5,445.0 299.5,445.0 299.5,445.0 299.5,445.0 299.5,445.0 299.5,445.0 299.5,445.0 299.5,445.0 299.5,445.0 299.5,445.0 299.5,445.0 299.5,445.0 299.5,445.0 299.5,445.0 299.5,445.0 299.5,445.0 299.5,445.0 299.5,445.0 299.5,445.0 299.5,445.0 299.5,445.0 299.5,445.0 299.5,445.0 299.5,445.0 299.5,445.0 299.5,445.0 299.5,445.0 299.5,445.0 299.5,445.0 299.5,445.0 299.5,445.0 299.5,445.0 299.5,445.0 299.5,445.0 299.5,445.0 299.5,445.0 299.5,445.0 299.5,445.0 299.5,445.0 299.5,445.0 299.5,445.0 299.5,445.0 299.5,445.0 299.5,445.0 299.5,445.0 299.5,445.0 299.5,445.0 299.5,445.0 299.5,445.0 299.5,445.0 299.5,445.0 299.5,445.0 299.5,445.0 299.5,445.0 299.5,445.0 299.5,445.0 299.5,445.0 299.5,445.0 299.5,445.0 299.5,445.0 299.5,445.0 299.5,445.0 299.5,445.0 299.5,445.0 299.5,445.0 299.5,445.0 299.5,445.0 299.5,445.0 299.5,445.0 299.5,445.0 299.5,445.0 299.5,445.0 299.5,445.0 299.5,445.0 299.5,445.0 299.5,445.0 299.5,445.0 299.5,445.0 299.5,445.0 299.5,445.0 299.5,445.0 299.5,445.0 299.5,445.0 299.5,445.0 299.5,445.0 299.5,445.0 299.5,445.0 299.5,445.0 299.5,445.0 299.5,445.0 299.5,445.0 299.5,445.0 299.5,445.0 299.5,445.0 299.5,445.0 299.5,445.0 299.5,445.0 299.5,445.0 299.5,445.0 299.5,445.0 299.5,445.0 299.5,445.0 299.5,445.0 299.5,445.0 299.5,445.0 299.5,445.0 299.5,445.0 299.5,445.0 299.5,445.0 299.5,445.0 299.5,445.0 299.5,445.0 299.5,445.0 299.5,445.0 299.5,445.0 299.5,445.0 299.5,445.0 299.5,445.0 299.5,445.0 299.5,445.0 299.5,445.0 299.5,445.0 299.5,445.0 299.5,445.0 299.5,445.0 299.5,445.0 299.5,445.0 299.5,445.0 299.5,445.0 299.5,445.0 299.5,445.0 299.5,445.0 299.5,445.0 299.5,445.0 299.5,445.0 299.5,445.0 299.5,445.0 299.5,445.0 299.5,445.0 299.5,445.0 299.5,445.0 299.5,445.0 299.5,445.0 299.5,445.0 299.5,445.0 299.5,445.0 299.5,445.0 299.5,445.0 299.5,445.0 299.5,445.0 299.5,445.0 299.5,445.0 299.5,445.0 299.5,445.0 299.5,445.0 299.5,445.0 299.5,445.0 299.5,445.0 299.5,445.0 299.5,445.0 299.5,445.0 299.5,445.0 299.5,445.0 299.5,445.0 299.5,445.0 299.5,445.0 299.5,445.0 299.5,445.0 299.5,445.0 299.5,445.0 299.5,445.0 299.5,445.0 299.5,445.0 299.5,445.0 299.5,445.0 299.5,445.0 299.5,445.0 299.5,445.0 299.5,445.0 299.5,445.0 299.5,445.0 299.5,445.0 299.5,445.0 299.5,445.0 299.5,445.0 299.5,445.0 299.5,445.0 299.5,445.0 299.5,445.0 299.5,445.0 299.5,445.0 299.5,445.0 299.5,445.0 299.5,445.0 299.5,445.0 299.5,445.0 299.5,445.0 299.5,445.0 299.5,445.0 299.5,445.0 299.5,445.0 299.5,445.0 299.5,445.0 299.5,445.0 299.5,445.0 299.5,445.0 299.5,445.0 299.5,445.0 299.5,445.0 299.5,445.0 299.5,445.0 299.5,445.0 299.5,445.0 299.5,445.0 299.5,445.0 299.5,445.0 299.5,445.0 299.5,445.0 299.5,445.0 299.5,445.0 299.5,445.0 299.5,445.0 299.5,445.0 299.5,445.0 299.5,445.0 299.5,445.0 299.5,445.0 299.5,445.0 299.5,445.0 299.5,445.0 299.5,445.0 299.5,445.0 299.5,445.0 299.5,445.0 299.5,445.0 299.5,445.0 299.5,445.0 299.5,445.0 299.5,445.0 299.5,445.0 299.5,445.0 299.5,445.0 299.5,445.0 299.5,445.0 299.5,445.0 299.5,445.0 299.5,445.0 299.5,445.0 299.5,445.0 299.5,445.0 299.5,445.0 299.5,445.0 299.5,445.0 299.5,445.0 299.5,445.0 299.5,445.0 299.5,445.0 299.5,445.0 299.5,445.0 299.5,445.0 299.5,445.0 299.5,445.0 299.5,445.0 299.5,445.0 299.5,445.0 299.5,445.0 299.5,445.0 299.5,445.0 299.5,445.0 299.5,445.0 299.5,445.0 299.5,445.0 299.5,445.0 299.5,445.0 299.5,445.0 299.5,445.0 299.5,445.0 299.5,445.0 299.5,445.0 299.5,445.0 299.5,445.0 299.5,445.0 299.5,445.0 299.5,445.0 299.5,445.0 299.5,445.0 299.5,445.0 299.5,445.0 299.5,445.0 299.5,445.0 299.5,445.0 299.5,445.0 299.5,445.0 299.5,445.0 299.5,445.0 299.5,445.0 299.5,445.0 299.5,445.0 299.5,445.0 299.5,445.0 299.5,445.0 299.5,445.0 299.5,445.0 299.5,445.0 299.5,445.0 299.5,445.0 299.5,445.0 299.5,445.0 299.5,445.0 299.5,445.0 299.5,445.0 299.5,445.0 299.5,445.0 299.5,445.0 299.5,445.0 299.5,445.0 299.5,445.0 299.5,445.0 299.5,445.0 299.5,445.0 299.5,445.0 299.5,445.0 299.5,445.0 299.5,445.0 299.5,445.0 299.5,445.0 299.5,445.0 299.5,445.0 299.5,445.0 299.5,445.0 299.5,445.0 299.5,445.0 299.5,445.0 299.5,445.0 299.5,445.0 299.5,445.0 299.5,445.0 299.5,445.0 299.5,445.0 299.5,445.0 299.5,445.0 299.5,445.0 299.5,445.0 299.5,445.0 299.5,445.0 299.5,445.0 299.5,445.0 299.5,445.0 299.5,445.0 299.5,445.0 299.5,445.0 299.5,445.0 299.5,445.0 299.5,445.0 299.5,445.0 299.5,445.0 299.5,445.0 299.5,445.0 299.5,445.0 299.5,445.0 299.5,445.0 299.5,445.0 299.5,445.0 299.5,445.0 299.5,445.0 299.5,445.0 299.5,445.0 299.5,445.0 299.5,445.0 299.5,445.0 299.5,445.0 299.5,445.0 299.5,445.0 299.5,445.0 299.5,445.0 299.5,445.0 299.5,445.0 299.5,445.0 299.5,445.0 299.5,445.0 299.5,445.0 299.5,445.0 299.5,445.0 299.5,445.0 299.5,445.0 299.5,445.0 299.5,445.0 299.5,445.0 299.5,445.0 299.5,445.0 299.5,445.0 299.5,445.0 299.5,445.0 299.5,445.0 299.5,445.0 299.5,445.0 299.5,445.0 299.5,445.0 299.5,445.0 299.5,445.0 299.5,445.0 299.5,445.0 299.5,445.0 299.5,445.0 299.5,445.0 299.5,445.0 299.5,445.0 299.5,445.0 299.5,445.0 299.5,445.0 299.5,445.0 299.5,445.0 299.5,445.0 299.5,445.0 299.5,445.0 299.5,445.0 299.5,445.0 299.5,445.0 299.5,445.0 299.5,445.0 299.5,445.0 299.5,445.0 299.5,445.0 299.5,445.0 299.5,445.0 299.5,445.0 299.5,445.0 299.5,445.0 299.5,445.0 299.5,445.0 299.5,445.0 299.5,445.0 299.5,445.0 299.5,445.0 299.5,445.0 299.5,445.0 299.5,445.0 299.5,445.0 299.5,445.0 299.5,445.0 299.5,445.0 299.5,445.0 299.5,445.0 299.5,445.0 299.5,445.0 299.5,445.0 299.5,445.0 299.5,445.0 299.5,445.0 299.5,445.0 299.5,445.0 299.5,445.0 299.5,445.0 299.5,445.0 299.5,445.0 299.5,445.0 299.5,445.0 299.5,445.0 299.5,445.0 299.5,445.0 299.5,445.0 299.5,445.0 299.5,445.0 299.5,445.0 299.5,445.0 299.5,445.0 299.5,445.0 299.5,445.0 299.5,445.0 299.5,445.0 299.5,445.0 299.5,445.0 299.5,445.0 299.5,445.0 299.5,445.0 299.5,445.0 299.5,445.0 299.5,445.0 299.5,445.0 299.5,445.0 299.5,445.0 299.5,445.0 299.5,445.0 299.5,445.0 299.5,445.0 299.5,445.0 299.5,445.0 299.5,445.0 299.5,445.0 299.5,445.0 299.5,445.0 299.5,445.0 299.5,445.0 299.5,445.0 299.5,445.0 299.5,445.0 299.5,445.0 299.5,445.0 299.5,445.0 299.5,445.0 299.5,445.0 299.5,445.0 299.5,445.0 299.5,445.0 299.5,445.0 299.5,445.0 299.5,445.0 299.5,445.0 299.5,445.0 299.5,445.0 299.5,445.0 299.5,445.0 299.5,445.0 299.5,445.0 299.5,445.0 299.5,445.0 299.5,445.0 299.5,445.0 299.5,445.0 299.5,445.0 299.5,445.0 299.5,445.0 299.5,445.0 299.5,445.0 299.5,445.0 299.5,445.0 299.5,445.0 299.5,445.0 299.5,445.0 299.5,445.0 299.5,445.0 299.5,445.0 299.5,445.0 299.5,445.0 299.5,445.0 299.5,445.0 299.5,445.0 299.5,445.0 299.5,445.0 299.5,445.0 299.5,445.0 299.5,445.0 299.5,445.0 299.5,445.0 299.5,445.0 299.5,445.0 299.5,445.0 299.5,445.0 299.5,445.0 299.5,445.0 299.5,445.0 299.5,445.0 299.5,445.0 299.5,445.0 299.5,445.0 299.5,445.0 299.5,445.0 299.5,445.0 299.8,445.0" fill="none" stroke="#2468a2" stroke-width="2.5"/>
<line x1="100" y1="62" x2="122" y2="62" stroke="#2468a2" stroke-width="3"/>
<text x="128" y="67" font-family="sans-serif" font-size="14">D1</text>
<polyline points="590.6,445.0 590.8,445.0 590.9,445.0 590.9,445.0 590.9,445.0 590.9,445.0 590.9,445.0 590.9,444.9 591.0,445.0 591.0,445.0 591.0,445.0 591.0,444.9 591.0,445.0 591.1,445.0 591.1,445.0 591.1,445.0 591.3,445.0 592.5,445.2 594.7,445.6 597.1,446.0 599.5,446.4 599.9,440.4 599.9,440.3 599.9,440.4 599.9,440.4 599.9,440.3 599.9,440.4 599.9,440.3 599.9,440.3 599.9,440.4 599.9,440.4 599.9,440.3 599.9,440.3 599.9,440.4 599.9,440.4 600.0,440.3 600.0,440.3 600.0,440.3 600.0,440.3 600.0,440.3 600.0,440.3 600.0,440.4 600.0,440.3 600.0,440.3 600.0,440.3 600.0,440.3 600.0,440.3 600.0,440.4 600.0,440.3 600.0,440.3 600.0,440.3 600.0,440.3 600.0,440.3 600.0,440.3 600.0,440.4 600.0,440.3 600.0,440.3 600.0,440.3 600.0,440.3 600.0,440.3 600.0,440.3 600.0,440.3 600.0,440.3 600.0,440.3 600.0,440.3 600.0,440.3 600.0,440.3 600.0,440.3 600.0,440.3 600.0,440.3 600.0,440.3 600.0,440.3 600.0,440.3 600.0,440.3 600.0,440.3 600.0,440.3 600.0,440.3 600.0,440.3 600.0,440.3 600.0,440.3 600.0,440.3 600.0,440.3 600.0,440.3 600.0,440.3 600.0,440.3 600.0,440.3 600.0,440.3 600.0,440.3 600.0,440.3 600.0,440.3 600.0,440.3 600.0,440.3 600.0,440.3 600.0,440.3 600.0,440.3 600.0,440.3 600.0,440.3 600.0,440.3 600.0,440.3 600.0,440.3 600.0,440.3 600.0,440.3 600.0,440.3 600.0,440.3 600.0,440.3 600.0,440.3 600.0,440.3 600.0,440.3 600.0,440.3 600.0,440.3 600.0,440.3 600.0,440.3 600.0,440.3 600.0,440.3 600.0,440.3 600.0,440.3 600.0,440.3 600.0,440.3 600.0,440.3 600.0,440.3 600.0,440.3 600.0,440.3 600.0,440.3 600.0,440.3 600.0,440.3 600.0,440.3 600.0,440.3 600.0,440.3 600.0,440.3 600.0,440.3 600.0,440.3 600.0,440.3 600.0,440.3 600.0,440.3 600.0,440.3 600.0,440.3 600.0,440.3 600.0,440.3 600.0,440.3 600.0,440.3 600.0,440.3 600.0,440.3 600.0,440.3 600.0,440.3 600.0,440.3 600.0,440.3 600.0,440.3 600.0,440.3 600.0,440.3 600.0,440.3 600.0,440.3 600.0,440.3 600.0,440.3 600.0,440.3 600.0,440.4 600.0,440.3 600.0,440.3 600.0,440.4 600.0,440.3 600.0,440.3 600.0,440.4 600.0,440.4 600.0,440.4 600.1,440.3 600.1,440.5 600.1,440.5 600.1,440.5 600.2,440.5 600.2,440.5 600.3,440.6 600.3,440.5 600.3,440.5 600.5,440.7 600.5,440.7 600.9,440.9 601.5,440.1 601.6,441.3 601.7,446.8 602.6,441.8 603.8,442.4 604.0,447.2 605.4,443.2 606.5,439.3 606.7,447.7 607.1,444.0 608.8,444.9 609.4,448.1 610.2,445.7 611.6,446.4 611.9,448.6 613.1,447.1 613.8,448.9 614.7,447.9 614.8,437.9 615.5,449.2 616.1,448.7 616.7,449.4 616.8,449.3 616.8,449.3 616.9,449.1 617.1,449.4 617.1,449.4 617.1,449.4 617.1,449.4 617.1,449.4 617.1,449.4 617.1,449.4 617.1,449.4 617.1,449.4 617.1,449.4 617.2,449.4 617.2,449.4 617.2,449.4 617.2,449.4 617.2,449.4 617.2,449.4 617.2,449.4 617.2,449.4 617.2,449.4 617.2,449.4 617.2,449.3 617.2,449.4 617.2,449.3 617.2,449.3 617.2,449.4 617.2,449.4 617.2,449.3 617.2,449.5 617.2,449.3 617.2,449.3 617.2,449.3 617.2,449.3 617.2,449.3 617.2,449.3 617.2,449.3 617.2,449.3 617.2,449.3 617.2,449.3 617.2,449.3 617.2,449.3 617.2,449.3 617.2,449.3 617.2,449.3 617.2,449.3 617.2,449.3 617.2,449.3 617.2,449.3 617.2,449.4 617.2,449.3 617.2,449.3 617.2,449.3 617.2,449.3 617.2,449.3 617.2,449.3 617.2,449.3 617.2,449.3 617.2,449.3 617.2,449.3 617.2,449.3 617.2,449.3 617.2,449.3 617.2,449.3 617.2,449.3 617.2,449.3 617.2,449.3 617.2,449.3 617.2,449.3 617.2,449.3 617.2,449.3 617.2,449.3 617.2,449.3 617.2,449.3 617.2,449.3 617.2,449.3 617.2,449.3 617.2,449.3 617.2,449.3 617.2,449.3 617.2,449.3 617.2,449.3 617.2,449.3 617.2,449.3 617.2,449.3 617.2,449.3 617.2,449.3 617.2,449.3 617.2,449.3 617.2,449.3 617.2,449.3 617.2,449.3 617.2,449.3 617.2,449.3 617.2,449.3 617.2,449.3 617.2,449.3 617.2,449.3 617.2,449.3 617.2,449.3 617.2,449.3 617.2,449.3 617.2,449.3 617.2,449.3 617.2,449.3 617.2,449.3 617.2,449.3 617.2,449.3 617.2,449.3 617.2,449.3 617.2,449.3 617.2,449.3 617.2,449.3 617.2,449.3 617.2,449.3 617.2,449.3 617.2,449.3 617.2,449.3 617.2,449.3 617.2,449.3 617.2,449.3 617.2,449.3 617.2,449.3 617.2,449.3 617.2,449.3 617.2,449.3 617.2,449.3 617.2,449.3 617.2,449.3 617.2,449.3 617.2,449.3 617.2,449.3 617.2,449.3 617.2,449.3 617.2,449.3 617.2,449.3 617.2,449.3 617.2,449.3 617.2,449.3 617.2,449.3 617.2,449.3 617.2,449.3 617.2,449.3 617.2,449.3 617.2,449.3 617.2,449.3 617.2,449.3 617.2,449.3 617.2,449.3 617.2,449.3 617.2,449.3 617.2,449.3 617.2,449.3 617.2,449.3 617.2,449.3 617.2,449.3 617.2,449.3 617.2,449.3 617.2,449.3 617.2,449.3 617.2,449.3 617.2,449.3 617.2,449.3 617.2,449.3 617.2,449.3 617.2,449.3 617.2,449.3 617.2,449.3 617.2,449.3 617.2,449.3 617.2,449.3 617.2,449.3 617.2,449.3 617.2,449.3 617.2,449.3 617.2,449.3 617.2,449.3 617.2,449.3 617.2,449.3 617.2,449.3 617.2,449.3 617.2,449.3 617.2,449.3 617.2,449.3 617.2,449.3 617.2,449.3 617.2,449.3 617.2,449.3 617.2,449.3 617.2,449.3 617.2,449.3 617.2,449.3 617.2,449.3 617.2,449.3 617.2,449.3 617.2,449.3 617.2,449.3 617.2,449.3 617.2,449.3 617.2,449.3 617.2,449.3 617.2,449.3 617.2,449.3 617.2,449.3 617.2,449.3 617.2,449.3 617.2,449.3 617.2,449.3 617.2,449.3 617.2,449.3 617.2,449.3 617.2,449.3 617.2,449.3 617.2,449.3 617.2,449.3 617.2,449.3 617.2,449.3 617.2,449.3 617.2,449.3 617.2,449.3 617.2,449.3 617.2,449.3 617.2,449.3 617.2,449.3 617.2,449.3 617.2,449.3 617.2,449.3 617.2,449.3 617.2,449.3 617.2,449.3 617.2,449.3 617.2,449.3 617.2,449.3 617.2,449.3 617.2,449.3 617.2,449.3 617.2,449.3 617.2,449.3 617.2,449.3 617.2,449.3 617.2,449.3 617.2,449.3 617.2,449.3 617.2,449.3 617.2,449.3 617.2,449.3 617.2,449.3 617.2,449.3 617.2,449.3 617.2,449.3 617.2,449.3 617.2,449.3 617.2,449.3 617.2,449.3 617.2,449.3 617.2,449.3 617.2,449.3 617.2,449.3 617.2,449.3 617.2,449.3 617.2,449.3 617.2,449.3 617.2,449.3 617.2,449.3 617.2,449.3 617.2,449.3 617.2,449.3 617.2,449.3 617.2,449.3 617.2,449.3 617.2,449.3 617.2,449.3 617.2,449.3 617.2,449.3 617.2,449.3 617.2,449.3 617.2,449.3 617.2,449.3 617.2,449.3 617.2,449.3 617.2,449.3 617.2,449.3 617.2,449.3 617.2,449.3 617.2,449.3 617.2,449.3 617.2,449.3 617.2,449.3 617.2,449.3 617.2,449.3 617.2,449.3 617.2,449.3 617.2,449.3 617.2,449.3 617.2,449.3 617.2,449.3 617.2,449.3 617.2,449.3 617.2,449.3 617.2,449.3 617.2,449.3 617.2,449.3 617.2,449.3 617.2,449.3 617.2,449.3 617.2,449.3 617.2,449.3 617.2,449.3 617.2,449.3 617.2,449.3 617.2,449.3 617.2,449.3 617.2,449.3 617.2,449.3 617.2,449.3 617.2,449.3 617.2,449.3 617.2,449.3 617.2,449.3 617.2,449.3 617.2,449.3 617.2,449.3 617.2,449.3 617.2,449.3 617.2,449.3 617.2,449.3 617.2,449.3 617.2,449.3 617.2,449.3 617.2,449.3 617.2,449.3 617.2,449.3 617.2,449.3 617.2,449.3 617.2,449.3 617.2,449.3 617.2,449.3 617.2,449.3 617.2,449.3 617.2,449.3 617.2,449.3 617.2,449.3 617.2,449.3 617.2,449.3 617.2,449.3 617.2,449.3 617.2,449.3 617.2,449.3 617.2,449.3 617.2,449.3 617.2,449.3 617.2,449.3 617.2,449.3 617.2,449.3 617.2,449.3 617.2,449.3 617.2,449.3 617.2,449.3 617.2,449.3 617.2,449.3 617.2,449.3 617.2,449.3 617.2,449.3 617.2,449.3 617.2,449.3 617.2,449.3 617.2,449.3 617.2,449.3 617.2,449.3 617.2,449.3 617.2,449.3 617.2,449.3 617.2,449.3 617.2,449.3 617.2,449.3 617.2,449.3 617.2,449.3 617.2,449.3 617.2,449.3 617.2,449.3 617.2,449.3 617.2,449.3 617.2,449.3 617.2,449.3 617.2,449.3 617.2,449.3 617.2,449.3 617.2,449.3 617.2,449.3 617.2,449.3 617.2,449.3 617.2,449.3 617.2,449.3 617.2,449.3 617.2,449.3 617.2,449.3 617.2,449.3 617.2,449.3 617.2,449.3 617.2,449.3 617.2,449.3 617.2,449.3 617.2,449.3 617.2,449.3 617.2,449.3 617.2,449.3 617.2,449.3 617.2,449.3 617.2,449.3 617.2,449.3 617.2,449.3 617.2,449.3 617.2,449.3 617.2,449.3 617.2,449.3 617.2,449.3 617.2,449.3 617.2,449.3 617.2,449.3 617.2,449.3 617.2,449.3 617.2,449.3 617.2,449.3 617.2,449.4 617.3,449.3 617.3,449.4 617.3,449.3 617.3,449.3 617.3,449.4 617.4,449.5 617.4,449.5 617.4,449.4 617.4,449.4 617.6,449.5 617.7,449.6 618.0,449.6 624.5,436.2 633.8,434.5 642.6,433.0 652.5,431.5 663.2,429.9 674.6,428.0 684.2,426.1 691.4,424.7 696.3,423.9 700.1,423.5 703.7,423.2 706.9,422.6 709.3,422.0 710.5,421.8 711.1,421.9 711.9,422.1 713.4,422.2 715.2,422.0 717.2,421.8 718.9,421.8 720.3,422.0 721.7,422.1 723.3,422.1 724.9,421.9 726.1,421.9 726.9,421.9 727.1,421.9 727.1,421.9 727.2,422.0 727.2,421.9 727.2,421.9 727.2,421.9 727.2,421.9 727.2,421.9 727.2,421.9 727.2,421.9 727.2,421.9 727.2,421.9 727.2,421.9 727.2,421.9 727.2,421.9 727.2,421.9 727.2,421.9 727.2,421.9 727.2,421.9 727.2,421.9 727.2,421.9 727.2,421.9 727.2,421.9 727.2,422.0 727.2,421.9 727.2,421.9 727.2,421.9 727.2,421.9 727.2,421.9 727.3,422.0 727.3,421.9 727.3,422.0 727.3,422.0 727.3,422.0 727.3,421.9 727.3,421.9 727.3,421.9 727.3,421.9 727.3,421.9 727.3,422.0 727.3,422.0 727.3,421.9 727.3,421.9 727.3,421.9 727.3,421.9 727.3,421.9 727.3,422.0 727.3,422.0 727.3,421.9 727.3,421.9 727.3,421.9 727.3,421.9 727.3,421.9 727.3,422.0 727.3,422.0 727.3,422.0 727.3,422.0 727.3,422.0 727.3,422.0 727.3,422.0 727.3,422.0 727.3,422.0 727.3,422.0 727.3,422.0 727.3,422.0 727.3,422.0 727.3,422.0 727.3,422.0 727.3,422.0 727.3,422.0 727.3,422.0 727.3,422.0 727.3,422.0 727.3,422.0 727.3,422.0 727.3,422.0 727.3,422.0 727.3,422.0 727.3,422.0 727.3,422.0 727.3,422.0 727.3,422.0 727.3,422.0 727.3,422.0 727.3,422.0 727.3,422.0 727.3,422.0 727.3,422.0 727.3,422.0 727.3,422.0 727.3,422.0 727.3,422.0 727.3,422.0 727.3,422.0 727.3,422.0 727.3,422.0 727.3,422.0 727.3,422.0 727.3,422.0 727.3,422.0 727.3,422.0 727.3,422.0 727.3,422.0 727.3,421.9 727.3,421.9 727.3,421.9 727.3,421.9 727.3,421.9 727.4,421.9 727.4,421.9 727.4,421.9 727.4,422.0 727.4,421.9 727.4,421.9 727.4,421.9 727.4,421.9 727.4,421.9 727.4,421.9 727.4,421.9 727.4,421.9 727.4,421.9 727.4,422.0 727.4,421.9 727.4,421.9 727.4,421.9 727.4,421.9 727.4,422.0 727.4,422.0 727.4,422.0 727.4,421.9 727.4,422.0 727.4,421.9 727.4,421.9 727.4,422.0 727.4,422.0 727.4,422.0 727.4,422.0 727.4,421.9 727.4,422.0 727.4,421.9 727.4,422.0 727.4,421.9 727.4,422.0 727.4,422.0 727.4,421.9 727.5,422.0 727.5,421.9 727.5,422.0 727.5,421.9 727.5,422.0 727.5,422.0 727.5,422.0 727.5,422.0 727.5,421.9 727.5,422.0 727.5,422.0 727.5,421.9 727.5,421.9 727.5,421.9 727.5,421.9 727.5,421.9 727.5,422.0 727.5,422.0 727.5,421.9 727.5,422.0 727.5,422.0 727.5,421.9 727.5,421.9 727.5,422.0 727.5,422.0 727.5,421.9 727.5,421.9 727.5,422.0 727.5,422.0 727.5,422.0 727.5,422.0 727.5,422.0" fill="none" stroke="#d04a32" stroke-width="2.5"/>
<line x1="280" y1="62" x2="302" y2="62" stroke="#d04a32" stroke-width="3"/>
<text x="308" y="67" font-family="sans-serif" font-size="14">D2</text>
</svg>
